<svg xmlns="http://www.w3.org/2000/svg" xmlns:xlink="http://www.w3.org/1999/xlink" viewBox="0 0 580.24 670" xmlns:v="https://vecta.io/nano"><defs><linearGradient id="A" x1="89.95" y1="252.51" x2="144.53" y2="347.04" xlink:href="#F"><stop offset="0" stop-color="#09f" stop-opacity="0"/><stop offset=".1" stop-color="#09f" stop-opacity="0"/><stop offset=".32" stop-color="#09f" stop-opacity=".26"/><stop offset=".83" stop-color="#09f" stop-opacity=".91"/><stop offset=".9" stop-color="#09f"/></linearGradient><linearGradient id="B" x1="145.79" y1="490.8" x2="200.37" y2="585.34" xlink:href="#F"><stop offset="0" stop-color="#f60" stop-opacity="0"/><stop offset=".1" stop-color="#f60" stop-opacity="0"/><stop offset=".32" stop-color="#f60" stop-opacity=".26"/><stop offset=".83" stop-color="#f60" stop-opacity=".91"/><stop offset=".9" stop-color="#f60"/></linearGradient><linearGradient id="C" x1="473.51" y1="527.11" x2="295.78" y2="502.39" xlink:href="#F"><stop offset="0" stop-color="#fc0"/><stop offset=".1" stop-color="#fc0"/><stop offset=".62" stop-color="#ff8a00"/><stop offset=".9" stop-color="#f60"/></linearGradient><linearGradient id="D" x1="200.9" y1="59.77" x2="200.9" y2="191.6" xlink:href="#F"><stop offset="0" stop-color="#03f"/><stop offset=".41" stop-color="#005aff"/><stop offset="1" stop-color="#09f"/></linearGradient><linearGradient id="E" x1="362.52" y1="385.68" x2="594.78" y2="186.9" xlink:href="#F"><stop offset="0" stop-color="#f60"/><stop offset=".1" stop-color="#f60"/><stop offset=".62" stop-color="#ff2400"/><stop offset=".9" stop-color="red"/></linearGradient><linearGradient id="F" gradientUnits="userSpaceOnUse"/></defs><path d="M178.45 270.53l-66.78-38.56-55.84 32.24L0 296.44l55.83 32.24 33.4 19.28 33.39 19.27L178.45 335l55.84-32.24-55.84-32.23h0z" fill="url(#A)"/><path d="M234.29,508.82l-66.79-38.56-55.83,32.24-55.84,32.23,55.84,32.24,33.39,19.28,33.39,19.28,55.84-32.24,55.83-32.23-55.83-32.24h0Z" fill="url(#B)"/><path d="M580.24 373.56l-55.83 32.23-55.84 32.24-55.83 32.23-66.79 38.56-55.83 32.24-55.83 32.23-55.84 32.24 55.84 32.23L290.12 670l55.83-32.24 55.84-32.23 66.78-38.56 55.84-32.24 55.83-32.23V373.56z" fill="url(#C)"/><path d="M345.95,32.23L290.12,0l-55.83,32.23-55.84,32.24-66.78,38.56-55.84,32.23L0,167.5v128.94l55.83-32.24,55.84-32.23,55.83-32.24,66.79-38.55,55.83-32.24,55.83-32.23,55.84-32.24-55.84-32.24h0Z" fill="url(#D)"/><path d="M580.24 167.5l-55.83-32.24-55.84 32.24-55.83 32.23-66.79 38.56-55.83 32.24-55.83 32.23L178.45 335l-66.78 38.56-55.84 32.23L0 438.03v64.47l55.83 32.23h0l55.84-32.23 55.83-32.24 66.79-38.55 55.83-32.24 55.83-32.24L401.79 335l66.78-38.56 55.83-32.23 55.84-32.24h0V167.5z" fill="#09f"/><path d="M580.24 167.5L345.95 367.23l234.29-135.26V167.5z" fill="url(#E)"/><path d="M0,470.26l117.14-99.86L0,438.03v32.23Z" fill="#fff"/></svg>