<svg xmlns="http://www.w3.org/2000/svg" xmlns:xlink="http://www.w3.org/1999/xlink" viewBox="0 0 1851.23 199.2" xmlns:v="https://vecta.io/nano"><defs><linearGradient id="A" x1="26.74" y1="75.07" x2="42.97" y2="103.18" xlink:href="#F"><stop offset="0" stop-color="#09f" stop-opacity="0"/><stop offset=".1" stop-color="#09f" stop-opacity="0"/><stop offset=".32" stop-color="#09f" stop-opacity=".26"/><stop offset=".83" stop-color="#09f" stop-opacity=".91"/><stop offset=".9" stop-color="#09f"/></linearGradient><linearGradient id="B" x1="43.34" y1="145.92" x2="59.57" y2="174.03" xlink:href="#F"><stop offset="0" stop-color="#f60" stop-opacity="0"/><stop offset=".1" stop-color="#f60" stop-opacity="0"/><stop offset=".32" stop-color="#f60" stop-opacity=".26"/><stop offset=".83" stop-color="#f60" stop-opacity=".91"/><stop offset=".9" stop-color="#f60"/></linearGradient><linearGradient id="C" x1="140.79" y1="156.72" x2="87.94" y2="149.37" xlink:href="#F"><stop offset="0" stop-color="#fc0"/><stop offset=".1" stop-color="#fc0"/><stop offset=".62" stop-color="#ff8a00"/><stop offset=".9" stop-color="#f60"/></linearGradient><linearGradient id="D" x1="59.73" y1="17.77" x2="59.73" y2="56.97" xlink:href="#F"><stop offset="0" stop-color="#03f"/><stop offset=".41" stop-color="#005aff"/><stop offset="1" stop-color="#09f"/></linearGradient><linearGradient id="E" x1="107.79" y1="114.67" x2="176.84" y2="55.57" xlink:href="#F"><stop offset="0" stop-color="#f60"/><stop offset=".1" stop-color="#f60"/><stop offset=".62" stop-color="#ff2400"/><stop offset=".9" stop-color="red"/></linearGradient><linearGradient id="F" gradientUnits="userSpaceOnUse"/></defs><g fill="#222"><path d="M397.28 57l7.85 11.7H295.66V57h101.62zM383.8 93.74l7.85 5.85-7.85 5.86h-88.07V93.74h88.07zm21.41 36.75l-7.85 11.7H295.74v-11.7h109.47zm80.88 11.71l7.41-11.7h52.66L510.9 67.97l-43.33 74.16h-14.22l50.96-85.19h13.26l50.96 85.19h-82.36l-.07.08h-.01zm227.98-58.6v-.15c0-8.15-6.67-14.75-14.74-14.75h-70.74L622.66 57h76.66c14.52 0 26.44 11.93 26.44 26.45-.03 12.18-8.33 22.77-20.15 25.71l-.59.15s-.59.15-.89.15l22.59 32.66h-15.11l-22.29-32.22h-55.03v32.22h-11.7V98.19h76.66c8.07 0 14.74-6.59 14.74-14.67l.07.08h.01zm66.81 58.6V57.01l11.7 7.85v65.56h77.55l7.85 11.7h-97.1v.08h0zm172.58-40.15l-46.51-44.97h16.44l35.92 36.22 35.92-36.22h16.45l-46.52 44.97v40.15h-11.7v-40.15h0zM1301.8 57h50.67c15.84 0 28.88 14 28.88 31.19V111c0 17.11-13.04 31.19-28.88 31.19h-50.67c-15.84 0-28.88-14-28.88-31.19V88.19c0-17.11 13.04-31.19 28.88-31.19zm11.34 73.49h39.33c9.92 0 18.07-8.74 18.07-19.49V88.19c0-10.74-8.15-19.49-18.07-19.49h-50.67c-9.92 0-18.07 8.74-18.07 19.49V111c0 10.74 8.15 19.49 18.07 19.49h11.34zm216.94-46.89v-.15c0-8.15-6.67-14.75-14.75-14.75h-72.65l-5.93-11.7h78.58c14.52 0 26.45 11.93 26.45 26.45-.03 12.18-8.33 22.77-20.15 25.71l-.6.15s-.59.15-.88.15l22.59 32.66h-15.11l-22.3-32.22h-57.03v32.22h-11.7V98.19h78.58c8.08 0 14.75-6.59 14.75-14.67l.15.08h0zm78.51-18.67v28.81h47.78l30-36.74h15.11l-34.74 42.59 34.74 42.6h-15.11l-30-36.74h-47.78v28.89l-11.7 7.85V57l11.7 7.85v.08zm162.43 3.78c-6.81 0-12.44 5.56-12.52 12.37v.38c.08 6.74 5.56 12.22 12.37 12.37h56.14c13.34 0 24.22 10.89 24.22 24.22 0 10.15-6.44 19.26-15.92 22.75-2.66.97-5.47 1.47-8.3 1.48h-73.4l7.85-11.7h65.55c6.82 0 12.44-5.48 12.52-12.38v-.37c-.08-6.74-5.55-12.23-12.37-12.37h-56.14c-13.33 0-24.22-10.89-24.22-24.23 0-10.14 6.44-19.25 15.93-22.74 2.67-.97 5.48-1.48 8.29-1.48h73.41l-7.85 11.7h-65.56zm-628.76 62.08l-28.51-73.56h-14.82l32.89 84.74h6.23l4.22-11.19h-.01z"/><path d="M1157.45,90.19l-15.19,40.59,4.3,11.19h6.22l12.15-32.45-7.49-19.33h0Z"/><path d="M1146.55 141.97l-4.29-11.19-4.23 11.19h8.52zm41.26-11.48l-15.63-40.38-7.26 19.4 12.59 32.45h6l4.29-11.48h.01zm-23.1-59.71l-5.26-13.55h-14.81l12.81 32.97 7.26-19.41h0z"/><path d="M1157.45 90.19l7.48 19.33 7.26-19.4-7.48-19.34-7.26 19.41zm57.84-32.96l-27.48 73.27 4.52 11.48h5.93l31.78-84.74h-14.75z"/><path d="M1192.33,141.97l-4.52-11.48-4.29,11.48h8.81Z"/></g><path d="M53.06 80.43L33.2 68.97l-16.6 9.58L0 88.14l16.6 9.58 9.93 5.73 9.93 5.73 16.6-9.58 16.6-9.58-16.6-9.59z" fill="url(#A)"/><path d="M69.66,151.28l-19.86-11.46-16.6,9.58-16.6,9.59,16.6,9.58,9.93,5.73,9.93,5.73,16.6-9.58,16.6-9.58-16.6-9.59Z" fill="url(#B)"/><path d="M172.52,111.06l-16.6,9.59-16.6,9.58-16.6,9.59-19.86,11.46-16.6,9.59-16.6,9.58-16.6,9.58,16.6,9.59,16.6,9.58,16.6-9.58,16.6-9.59,19.86-11.46,16.6-9.58,16.6-9.59v-38.34h0Z" fill="url(#C)"/><path d="M102.86,9.58L86.26,0l-16.6,9.58-16.6,9.59-19.86,11.46-16.6,9.58L0,49.8v38.34l16.6-9.59,16.6-9.58,16.6-9.59,19.86-11.46,16.6-9.59,16.6-9.58,16.6-9.58-16.6-9.59h0Z" fill="url(#D)"/><path d="M172.52 49.8l-16.6-9.59-16.6 9.59-16.6 9.58-19.86 11.47-16.6 9.58-16.6 9.59-16.6 9.58-19.86 11.46-16.6 9.59L0 130.23v19.17l16.6 9.59h0l16.6-9.59 16.6-9.58 19.86-11.47 16.6-9.58 16.6-9.59 16.6-9.58 19.86-11.46 16.6-9.59 16.6-9.58h0V49.8h0z" fill="#09f"/><path d="M172.52 49.8l-69.66 59.38 69.66-40.21V49.8z" fill="url(#E)"/></svg>