<?xml version="1.0" standalone="no"?>
<!DOCTYPE svg PUBLIC "-//W3C//DTD SVG 20010904//EN"
 "http://www.w3.org/TR/2001/REC-SVG-20010904/DTD/svg10.dtd">
<svg version="1.0" xmlns="http://www.w3.org/2000/svg"
 width="337.000000pt" height="337.000000pt" viewBox="0 0 337.000000 337.000000"
 preserveAspectRatio="xMidYMid meet">
<metadata>
Created by potrace 1.14, written by Peter Selinger 2001-2017
</metadata>
<g transform="translate(0.000000,337.000000) scale(0.100000,-0.100000)"
fill="#000000" stroke="none">
<path d="M1605 3101 c-44 -26 -100 -59 -125 -73 -25 -14 -184 -106 -355 -205
-171 -98 -399 -231 -507 -293 l-198 -115 0 -283 0 -284 33 20 c17 11 136 79
262 152 127 73 248 144 270 156 22 13 76 44 120 70 44 25 101 57 126 72 26 15
249 144 496 287 369 213 447 262 434 271 -18 13 -471 274 -474 274 -1 -1 -38
-22 -82 -49z"/>
<path d="M2600 2490 c-814 -472 -1146 -663 -1155 -663 -5 0 -54 25 -108 56
-53 31 -95 52 -93 48 3 -4 -2 -8 -11 -8 -9 0 -18 9 -21 19 -2 10 -11 18 -18
18 -8 0 -14 5 -14 10 0 16 -27 11 -34 -6 -5 -14 -4 -15 7 -5 18 14 42 -11 33
-35 -5 -12 -2 -15 9 -10 11 4 14 2 9 -6 -5 -8 -1 -9 12 -4 15 6 16 5 7 -5 -19
-19 -66 16 -58 42 6 18 5 19 -14 7 l-20 -12 20 -22 c17 -18 19 -26 10 -41 -10
-16 -11 -16 -8 6 1 13 -3 26 -10 28 -6 2 -10 -4 -9 -14 2 -10 1 -13 -1 -7 -2
6 -15 17 -28 24 -26 14 -24 32 2 28 9 -2 17 4 18 12 2 8 6 24 10 35 6 16 5 17
-4 5 -10 -13 -12 -13 -21 0 -9 13 -10 12 -8 -4 2 -10 -3 -21 -11 -24 -8 -3
-11 0 -7 7 5 7 1 9 -10 4 -15 -6 -15 -7 0 -15 14 -8 15 -12 5 -25 -11 -12 -10
-17 4 -24 19 -11 23 -29 6 -29 -5 0 -7 5 -4 10 3 6 0 10 -7 10 -8 0 -14 -9
-15 -19 -1 -11 4 -19 10 -17 7 1 9 1 5 -1 -4 -2 -4 -11 -1 -19 3 -7 10 -11 16
-7 5 3 7 1 4 -5 -8 -12 -32 -10 -44 3 -4 4 -2 5 6 0 9 -5 12 -3 9 6 -5 14 -25
19 -42 11 -4 -3 -2 -8 5 -13 10 -6 10 -9 2 -9 -7 0 -16 7 -21 16 -6 11 -12 13
-16 6 -3 -6 2 -17 13 -24 14 -10 17 -18 10 -28 -7 -13 -9 -12 -9 1 0 9 -7 22
-15 29 -12 10 -16 9 -21 -4 -4 -10 -13 -15 -21 -12 -9 4 -13 1 -10 -6 2 -7 10
-12 16 -10 16 3 14 -7 -6 -26 -16 -16 -16 -16 -10 2 6 14 4 17 -8 12 -17 -6
-55 13 -55 28 0 4 6 3 14 -3 8 -7 16 -8 18 -4 3 4 3 2 2 -4 -2 -7 0 -13 5 -13
5 0 11 9 14 21 4 14 10 18 19 13 10 -6 10 -4 -1 9 -8 10 -11 20 -7 24 3 3 6 1
6 -6 0 -7 5 -9 11 -5 8 4 7 9 -2 15 -10 5 -21 -1 -36 -19 -18 -23 -24 -25 -35
-13 -7 8 -8 11 -2 8 7 -4 24 11 39 33 15 22 31 37 36 34 5 -3 9 0 9 6 0 7 -6
10 -14 7 -8 -3 -17 -3 -19 1 -2 4 -3 2 -1 -4 4 -19 -27 -56 -43 -50 -9 4 -11
2 -7 -6 5 -7 2 -9 -8 -6 -12 5 -14 0 -12 -24 3 -25 1 -28 -10 -19 -10 9 -12
20 -6 42 5 18 5 27 -1 24 -5 -4 -9 -15 -9 -26 0 -11 -4 -18 -9 -14 -6 3 -13
-1 -18 -8 -4 -8 -17 -19 -28 -25 -17 -9 -14 -10 19 -7 34 5 37 3 26 -10 -7 -9
-10 -18 -6 -22 3 -3 6 0 6 8 0 12 2 11 11 -1 9 -12 10 -11 4 5 -3 11 -3 16 1
12 4 -4 12 -3 18 2 7 6 21 1 38 -14 21 -18 24 -24 12 -29 -8 -3 -12 -2 -9 3 3
5 1 12 -5 16 -9 6 -14 -7 -11 -31 1 -6 -6 -18 -16 -25 -15 -13 -15 -12 -5 8 8
14 9 24 2 28 -5 3 -10 -2 -11 -12 0 -17 -1 -16 -8 1 -11 28 -41 30 -38 3 1
-16 -3 -22 -15 -21 -21 2 -23 -7 -6 -24 9 -9 9 -12 0 -12 -7 0 -12 5 -12 11 0
5 -4 8 -10 4 -5 -3 -7 -13 -4 -23 5 -14 4 -15 -5 -2 -6 9 -7 18 -1 24 6 6 10
15 10 21 -1 5 -9 1 -18 -11 -16 -19 -19 -19 -32 -6 -13 14 -12 15 3 9 11 -4
16 -3 12 3 -4 6 -1 9 7 8 7 -2 12 3 10 10 -3 15 15 16 20 0 3 -7 7 -5 11 6 4
9 3 15 -1 12 -5 -3 -9 1 -9 9 0 10 4 12 12 5 7 -5 15 -7 18 -3 14 13 6 21 -19
21 -18 0 -24 -5 -20 -15 4 -9 1 -13 -6 -10 -7 2 -12 10 -10 16 4 21 -16 11
-21 -11 -5 -19 -8 -20 -23 -7 -12 9 -15 10 -10 2 4 -8 2 -13 -6 -13 -8 0 -6
-5 5 -11 9 -6 15 -15 11 -20 -3 -6 -14 0 -25 12 -11 12 -22 19 -26 15 -7 -7
25 -33 41 -34 5 0 12 -4 15 -9 9 -13 68 -52 83 -55 7 -2 18 -8 25 -15 7 -6 38
-26 68 -43 30 -17 57 -35 59 -39 3 -4 -114 -76 -260 -160 l-264 -153 0 -142 0
-141 118 -69 c100 -58 121 -66 142 -59 14 5 198 110 410 233 212 122 468 271
570 330 196 113 479 277 695 402 171 99 300 174 465 269 l135 78 3 143 3 144
-73 42 c-40 23 -95 54 -123 70 l-50 29 -115 -67z m-1483 -535 c0 -8 -4 -12 -9
-9 -5 3 -6 10 -3 15 9 13 12 11 12 -6z m-271 -147 c14 -17 15 -20 2 -9 -9 7
-22 10 -27 6 -7 -3 -8 0 -5 9 8 20 7 20 30 -6z m141 -10 c-3 -8 -6 -5 -6 6 -1
11 2 17 5 13 3 -3 4 -12 1 -19z m67 -10 c-3 -4 -9 -8 -15 -8 -5 0 -9 4 -9 8 0
5 7 9 15 9 8 0 12 -4 9 -9z m-307 -51 c0 -16 -34 -20 -43 -5 -4 6 -2 8 4 4 6
-3 13 -2 17 4 9 14 22 12 22 -3z m197 -2 c-4 -8 -11 -12 -16 -9 -6 4 -5 10 3
15 19 12 19 11 13 -6z m-107 -17 c-3 -8 -6 -5 -6 6 -1 11 2 17 5 13 3 -3 4
-12 1 -19z m183 16 c0 -8 -19 -13 -24 -6 -3 5 1 9 9 9 8 0 15 -2 15 -3z m-190
-44 c0 -5 -4 -10 -10 -10 -5 0 -10 5 -10 10 0 6 5 10 10 10 6 0 10 -4 10 -10z
m39 -33 c-2 -1 -13 -9 -24 -17 -19 -14 -19 -14 -6 3 7 9 18 17 24 17 6 0 8 -1
6 -3z"/>
<path d="M1055 2001 c-3 -5 -2 -12 3 -15 5 -3 9 1 9 9 0 17 -3 19 -12 6z"/>
<path d="M1024 1966 c-3 -8 -14 -13 -24 -11 -14 3 -17 -1 -13 -12 5 -12 3 -14
-8 -8 -11 7 -12 6 -2 -6 6 -8 10 -24 8 -34 -2 -11 -4 -22 -4 -25 -1 -3 -5 2
-11 10 -5 8 -12 11 -17 6 -4 -4 0 -12 10 -18 15 -8 16 -12 5 -26 -8 -11 -3 -9
12 4 14 11 35 19 48 18 24 -1 24 -1 26 36 1 14 5 30 9 36 4 7 0 14 -8 17 -9 4
-12 1 -8 -9 3 -9 0 -14 -8 -12 -8 2 -13 -3 -11 -9 2 -15 -7 -16 -25 -5 -12 7
-3 35 11 32 4 0 14 6 22 15 9 8 11 15 4 15 -6 0 -13 -6 -16 -14z m16 -66 c-13
-9 -13 -10 0 -10 11 -1 11 -3 -3 -11 -10 -6 -21 -8 -24 -5 -4 3 -13 0 -22 -7
-14 -10 -14 -10 -4 4 7 9 10 18 7 21 -3 3 -1 9 5 13 6 3 11 -1 11 -9 0 -9 5
-16 11 -16 5 0 8 4 4 9 -3 5 -1 12 5 16 6 4 7 12 4 18 -4 8 -2 7 7 -1 12 -11
12 -14 -1 -22z"/>
<path d="M1106 1918 c3 -4 9 -8 15 -8 5 0 9 4 9 8 0 5 -7 9 -15 9 -8 0 -12 -4
-9 -9z"/>
<path d="M900 1890 c-9 -6 -10 -10 -3 -10 6 0 15 5 18 10 8 12 4 12 -15 0z"/>
<path d="M795 1839 c-4 -6 -5 -12 -2 -15 2 -3 7 2 10 11 7 17 1 20 -8 4z"/>
<path d="M758 1813 c7 -3 16 -2 19 1 4 3 -2 6 -13 5 -11 0 -14 -3 -6 -6z"/>
<path d="M660 1785 c0 -5 5 -17 10 -25 5 -8 10 -10 10 -5 0 6 -5 17 -10 25 -5
8 -10 11 -10 5z"/>
<path d="M861 1772 c-7 -14 -6 -19 4 -19 17 0 28 24 15 32 -5 3 -13 -3 -19
-13z"/>
<path d="M580 1775 c0 -2 6 -8 13 -14 10 -8 14 -7 14 2 0 8 -6 14 -14 14 -7 0
-13 -1 -13 -2z"/>
<path d="M632 1775 c4 -4 3 -14 -4 -22 -8 -11 -7 -12 6 -7 19 7 21 20 4 30 -7
4 -10 4 -6 -1z"/>
<path d="M790 1730 c0 -5 5 -10 10 -10 6 0 10 5 10 10 0 6 -4 10 -10 10 -5 0
-10 -4 -10 -10z"/>
<path d="M2920 1488 c-19 -12 -102 -60 -185 -108 -162 -93 -501 -289 -655
-378 -52 -30 -160 -93 -239 -139 -147 -84 -160 -90 -176 -74 -19 18 -218 122
-223 117 -3 -3 -11 3 -19 13 -8 12 -21 18 -34 16 -16 -3 -19 0 -15 12 5 12 4
13 -7 5 -8 -7 -16 -11 -18 -9 -2 1 2 -3 9 -10 8 -7 9 -13 3 -17 -5 -4 -17 4
-26 16 l-17 23 8 -25 c6 -22 5 -23 -9 -11 -9 7 -14 18 -10 24 3 6 1 7 -6 3 -7
-5 -9 -12 -3 -19 15 -19 11 -49 -5 -42 -8 3 -18 5 -21 5 -4 0 0 5 8 10 13 8
13 11 1 22 -8 8 -11 8 -7 1 3 -6 -8 -20 -28 -33 -25 -15 -33 -26 -29 -37 4
-11 2 -14 -5 -9 -8 5 -10 2 -6 -9 4 -9 3 -15 -2 -14 -22 4 -35 -2 -28 -12 4
-8 9 -7 15 2 7 11 9 11 9 1 0 -10 4 -9 16 2 8 9 20 13 26 10 7 -5 8 -2 3 7 -7
11 -6 12 6 2 9 -8 20 -9 29 -3 13 8 13 10 1 10 -11 0 -10 4 4 14 11 8 25 12
32 9 7 -3 13 0 13 7 0 6 5 8 12 4 7 -5 8 -3 3 6 -6 9 -4 11 5 5 8 -5 11 -4 6
3 -4 7 1 9 15 7 16 -3 18 -1 10 8 -8 10 -4 13 14 13 23 0 23 -1 8 -18 -15 -17
-5 -27 11 -11 3 4 15 7 26 8 16 1 17 -1 8 -13 -8 -9 -14 -10 -16 -3 -2 6 -9 8
-15 4 -7 -5 -23 -8 -37 -8 -17 0 -26 -6 -28 -20 -2 -12 0 -16 5 -9 5 8 14 5
28 -9 20 -20 20 -20 -4 -7 -22 11 -23 11 -17 -6 6 -18 5 -18 -9 0 -8 11 -15
23 -15 28 0 4 -7 5 -16 1 -13 -5 -13 -8 -2 -15 10 -7 8 -8 -5 -4 -14 4 -21 -2
-29 -25 -11 -32 -11 -32 -23 -9 -7 12 -15 18 -18 13 -4 -6 0 -19 8 -29 8 -10
15 -23 15 -28 0 -6 -6 -1 -14 10 -12 16 -18 17 -34 7 -14 -9 -22 -9 -31 0 -6
6 -11 7 -11 1 0 -5 5 -15 11 -21 7 -7 6 -12 -5 -16 -10 -4 -13 -1 -10 7 3 7
-2 13 -11 13 -9 0 -14 -6 -11 -14 3 -8 1 -11 -4 -8 -6 3 -10 1 -10 -4 0 -6 9
-11 19 -11 11 0 22 -4 25 -9 8 -12 -21 -34 -34 -26 -6 3 -22 9 -37 11 -22 4
-24 2 -15 -9 16 -19 4 -29 -19 -16 -14 7 -25 6 -39 -4 -11 -8 -17 -17 -13 -20
6 -6 -11 -11 -29 -8 -5 0 -8 -6 -8 -15 0 -10 5 -14 16 -10 8 3 13 2 10 -3 -8
-12 20 -22 42 -15 13 5 14 4 3 -4 -10 -7 4 -20 60 -52 41 -24 95 -56 122 -72
26 -15 52 -28 57 -28 6 0 10 -4 10 -10 0 -5 4 -10 9 -10 4 0 60 -30 122 -66
63 -37 130 -76 149 -86 19 -11 49 -29 67 -39 l31 -20 99 57 c54 31 154 89 223
129 69 40 141 82 160 93 19 11 76 43 125 72 50 29 108 63 130 75 32 19 203
117 440 255 17 10 45 26 62 36 l33 19 0 283 c0 155 -1 282 -2 282 -2 0 -19
-10 -38 -22z m-1570 -581 c0 -2 -9 -12 -21 -23 -15 -14 -20 -15 -17 -4 2 8 8
18 13 22 10 8 25 10 25 5z m-70 -27 c13 -9 13 -12 -3 -21 -9 -6 -14 -16 -11
-22 4 -7 1 -6 -7 2 -11 10 -11 15 -1 18 6 3 12 10 12 16 -1 7 -11 -1 -25 -17
-19 -24 -23 -26 -22 -10 2 17 24 43 37 44 3 0 12 -5 20 -10z m191 -9 c-11 -7
-10 -11 5 -20 11 -6 14 -11 8 -11 -6 0 -17 6 -23 13 -11 14 -5 27 13 27 6 0 5
-4 -3 -9z m-52 -21 c-6 -5 -18 -6 -26 -3 -19 8 -16 11 13 11 17 0 22 -3 13 -8z
m28 -27 c0 -9 -4 -10 -14 -2 -7 6 -13 12 -13 14 0 1 6 2 13 2 8 0 14 -6 14
-14z m-102 -13 c3 -5 0 -12 -6 -16 -8 -5 -9 -3 -4 6 5 9 2 10 -14 5 -11 -3
-21 -3 -21 2 0 12 38 14 45 3z m16 -33 c-10 -9 -11 -8 -5 6 3 10 9 15 12 12 3
-3 0 -11 -7 -18z m69 13 c0 -5 -2 -10 -4 -10 -3 0 -8 5 -11 10 -3 6 -1 10 4
10 6 0 11 -4 11 -10z m-139 -23 c-10 -9 -11 -8 -5 6 3 10 9 15 12 12 3 -3 0
-11 -7 -18z m-45 -9 c4 -7 3 -8 -4 -4 -7 4 -12 2 -12 -3 0 -6 -5 -11 -11 -11
-8 0 -8 5 1 15 15 18 17 18 26 3z m18 -30 c-3 -5 -10 -5 -16 -2 -8 5 -9 1 -4
-12 5 -14 4 -16 -5 -7 -14 14 -6 30 15 30 8 0 13 -4 10 -9z m-50 -14 c5 -14 4
-15 -9 -4 -17 14 -19 20 -6 20 5 0 12 -7 15 -16z m-4 -38 c0 -3 -4 -8 -10 -11
-5 -3 -10 -1 -10 4 0 6 5 11 10 11 6 0 10 -2 10 -4z m-140 -20 c0 -2 -7 -7
-16 -10 -8 -3 -12 -2 -9 4 6 10 25 14 25 6z m18 -33 c-12 -15 -22 -18 -14 -4
4 5 0 11 -6 14 -7 3 -3 4 9 4 17 -1 19 -4 11 -14z m47 7 c3 -6 -1 -7 -9 -4
-18 7 -21 14 -7 14 6 0 13 -4 16 -10z"/>
<path d="M1307 973 c-3 -5 6 -9 20 -10 19 -1 22 1 12 8 -17 11 -26 11 -32 2z"/>
<path d="M1199 928 c-4 -12 -5 -57 0 -53 6 6 10 55 4 55 -1 0 -3 -1 -4 -2z"/>
<path d="M1134 888 c-4 -7 -4 -10 1 -6 4 4 15 2 24 -5 14 -11 14 -10 2 6 -16
20 -18 21 -27 5z"/>
<path d="M1135 858 c4 -9 12 -19 19 -21 17 -7 43 10 32 20 -5 4 -11 2 -13 -5
-4 -10 -10 -9 -24 4 -17 15 -19 16 -14 2z"/>
<path d="M1036 843 c-6 -14 -5 -15 5 -6 7 7 10 15 7 18 -3 3 -9 -2 -12 -12z"/>
<path d="M1101 844 c0 -11 3 -14 6 -6 3 7 2 16 -1 19 -3 4 -6 -2 -5 -13z"/>
<path d="M1117 827 c-3 -7 1 -21 9 -32 20 -28 16 -44 -5 -19 -17 21 -18 22
-30 3 -6 -11 -16 -17 -21 -14 -14 8 -13 26 1 23 6 -2 14 4 16 12 4 13 3 13 -6
0 -6 -8 -11 -11 -11 -6 0 6 -5 5 -12 -2 -8 -8 -8 -15 2 -27 15 -18 0 -20 -20
-2 -12 10 -12 9 -2 -3 14 -20 12 -58 -5 -65 -11 -3 -11 0 -3 16 8 15 8 24 0
34 -9 11 -15 9 -35 -11 -13 -13 -29 -24 -35 -24 -6 0 -10 -7 -8 -16 2 -10 -3
-19 -10 -21 -7 -3 -10 1 -6 10 3 8 1 18 -5 22 -7 4 -8 -1 -4 -12 6 -15 4 -16
-9 -6 -8 7 -19 9 -23 5 -5 -4 -5 2 -1 12 6 16 4 17 -9 6 -12 -10 -13 -15 -3
-21 6 -4 15 -6 20 -3 4 3 15 -7 24 -21 14 -21 19 -23 32 -13 13 11 15 10 9 -5
-5 -13 -3 -17 5 -14 7 2 12 13 12 25 -1 12 2 19 7 16 5 -3 6 2 3 10 -3 9 -2
16 4 16 11 0 11 -18 -1 -37 -4 -6 -3 -14 2 -17 5 -4 12 3 16 14 4 11 11 18 16
15 5 -4 12 1 15 9 5 14 9 14 32 0 25 -15 25 -15 8 0 -15 12 -16 16 -5 18 8 0
21 2 29 3 8 1 23 -3 33 -7 9 -5 23 -6 30 -1 8 5 3 9 -13 13 -18 5 -24 12 -22
26 2 10 4 27 5 37 1 17 2 17 13 2 9 -12 13 -13 17 -2 2 7 -1 21 -8 30 -13 19
-30 24 -19 6 4 -7 1 -10 -7 -7 -8 3 -13 12 -11 22 3 19 -4 21 -11 3z m7 -89
c-3 -4 -12 -4 -21 -1 -11 4 -14 2 -9 -5 3 -6 -2 -16 -13 -22 -31 -16 -34 5 -5
39 24 29 27 30 39 14 7 -10 11 -21 9 -25z m-94 -9 c0 -5 -5 -7 -12 -3 -7 5 -9
2 -5 -9 4 -11 2 -14 -8 -11 -13 6 -38 -28 -30 -40 3 -3 2 -4 -2 -1 -3 3 -13
-1 -22 -7 -10 -8 -9 -4 3 10 11 12 15 22 10 22 -10 0 47 49 59 50 4 0 7 -5 7
-11z"/>
<path d="M1070 730 c-8 -15 -8 -18 3 -14 8 3 14 11 14 19 0 20 -4 19 -17 -5z"/>
<path d="M1030 806 c4 -4 16 -4 26 2 16 9 14 10 -8 9 -15 -1 -23 -6 -18 -11z"/>
<path d="M1220 805 c-7 -8 -16 -12 -21 -9 -5 3 -9 1 -9 -5 0 -18 20 -23 26 -7
3 9 9 14 13 11 4 -2 8 2 8 10 0 19 -2 19 -17 0z"/>
<path d="M910 773 c0 -6 8 -17 18 -24 16 -13 16 -13 2 6 -8 11 -16 22 -17 24
-2 2 -3 0 -3 -6z"/>
<path d="M974 768 c-3 -4 5 -5 17 -3 30 6 36 14 9 12 -12 -1 -24 -5 -26 -9z"/>
<path d="M946 734 c-11 -8 -16 -14 -10 -14 13 0 39 18 34 24 -3 2 -14 -2 -24
-10z"/>
</g>
</svg>
